<?xml version="1.0" encoding="UTF-8" standalone="no"?>
<svg
   width="360"
   height="800"
   fill-rule="evenodd"
   clip-rule="evenodd"
   version="1.1"
   id="svg1"
   sodipodi:docname="Paws-SmartphoneDark.svg"
   inkscape:version="1.4.2 (f4327f4, 2025-05-13)"
   xmlns:inkscape="http://www.inkscape.org/namespaces/inkscape"
   xmlns:sodipodi="http://sodipodi.sourceforge.net/DTD/sodipodi-0.dtd"
   xmlns="http://www.w3.org/2000/svg"
   xmlns:svg="http://www.w3.org/2000/svg">
  <defs
     id="defs1" />
  <sodipodi:namedview
     id="namedview1"
     pagecolor="#ffffff"
     bordercolor="#000000"
     borderopacity="0.25"
     inkscape:showpageshadow="2"
     inkscape:pageopacity="0.0"
     inkscape:pagecheckerboard="0"
     inkscape:deskcolor="#d1d1d1"
     inkscape:zoom="1.0065104"
     inkscape:cx="142.57179"
     inkscape:cy="271.73091"
     inkscape:window-width="1920"
     inkscape:window-height="1009"
     inkscape:window-x="-8"
     inkscape:window-y="-8"
     inkscape:window-maximized="1"
     inkscape:current-layer="svg1"
     showgrid="false" />
  <g
     id="g2-6"
     transform="matrix(-1.5883901,-1.4057252,1.4057252,-1.5883901,311.9411,1897.1637)"
     style="fill:#221f1e;fill-opacity:1">
    <path
       d="m 590.87289,469.91784 c 1.268,-0.45098 1.92,-2.756 1.377,-5.337 -0.519,-2.46697 -2.062,-4.11398 -4.437,-3.26899 -2.06,0.73202 -2.494,3.07699 -1.377,5.33601 1.125,2.276 3.169,3.72099 4.437,3.26998 z"
       id="path28-41-1"
       style="fill:#221f1e;fill-opacity:1;stroke-width:0.999999" />
    <path
       d="m 580.57789,469.97585 c -1.323,-0.25096 -2.321,-2.428 -2.182,-5.062 0.13398,-2.51701 1.405,-4.38198 3.882,-3.912 2.149,0.40702 2.938,2.65701 2.181,5.06102 -0.761,2.42098 -2.559,4.16398 -3.881,3.91298 z"
       id="path27-1-4"
       style="fill:#221f1e;fill-opacity:1;stroke-width:0.999999" />
    <path
       d="m 596.22089,462.68386 c 1.044,-0.729 1.06,-2.996 -0.082,-5.21499 -1.092,-2.12002 -2.913,-3.236 -4.868,-1.87 -1.696,1.18499 -1.504,3.43298 0.082,5.21499 1.596,1.79301 3.824,2.59899 4.868,1.87 z"
       id="path26-38-2"
       style="fill:#221f1e;fill-opacity:1;stroke-width:0.999999" />
    <path
       d="m 574.25289,463.38984 c -1.188,-0.539 -1.629,-2.81999 -0.894,-5.26999 0.704,-2.341 2.33,-3.80598 4.556,-2.79598 1.931,0.877 2.158,3.17798 0.894,5.26998 -1.274,2.10702 -3.367,3.336 -4.556,2.79599 z"
       id="path25-7-3"
       style="fill:#221f1e;fill-opacity:1;stroke-width:0.999999" />
    <path
       d="m 585.04589,458.99984 c -3.33,0 -7.057,-6.12299 -7.632,-8.71597 -0.575,-2.594 0.996,-4.72902 3.484,-4.11201 1.092,0.27099 3.252,1.307 4.102,1.29101 0.925,-0.0151 2.379,-0.83603 3.587,-1.25201 2.657,-0.916 4.717,1.283 4.01,4.07301 -0.774,3.05099 -4.48,8.71597 -7.551,8.71597 z"
       id="path1-4-2"
       style="fill:#221f1e;fill-opacity:1;stroke:none;stroke-width:0;stroke-dasharray:none" />
  </g>
  <g
     id="g3"
     transform="matrix(-1.5883901,-1.4057252,1.4057252,-1.5883901,372.08199,1914.2241)"
     style="fill:#221f1e;fill-opacity:1">
    <path
       d="m 590.87289,469.91784 c 1.268,-0.45098 1.92,-2.756 1.377,-5.337 -0.519,-2.46697 -2.062,-4.11398 -4.437,-3.26899 -2.06,0.73202 -2.494,3.07699 -1.377,5.33601 1.125,2.276 3.169,3.72099 4.437,3.26998 z"
       id="path28-41-5-2"
       style="fill:#221f1e;fill-opacity:1;stroke-width:0.999999" />
    <path
       d="m 580.57789,469.97585 c -1.323,-0.25096 -2.321,-2.428 -2.182,-5.062 0.13398,-2.51701 1.405,-4.38198 3.882,-3.912 2.149,0.40702 2.938,2.65701 2.181,5.06102 -0.761,2.42098 -2.559,4.16398 -3.881,3.91298 z"
       id="path27-1-5-1"
       style="fill:#221f1e;fill-opacity:1;stroke-width:0.999999" />
    <path
       d="m 596.22089,462.68386 c 1.044,-0.729 1.06,-2.996 -0.082,-5.21499 -1.092,-2.12002 -2.913,-3.236 -4.868,-1.87 -1.696,1.18499 -1.504,3.43298 0.082,5.21499 1.596,1.79301 3.824,2.59899 4.868,1.87 z"
       id="path26-38-1-6"
       style="fill:#221f1e;fill-opacity:1;stroke-width:0.999999" />
    <path
       d="m 574.25289,463.38984 c -1.188,-0.539 -1.629,-2.81999 -0.894,-5.26999 0.704,-2.341 2.33,-3.80598 4.556,-2.79598 1.931,0.877 2.158,3.17798 0.894,5.26998 -1.274,2.10702 -3.367,3.336 -4.556,2.79599 z"
       id="path25-7-7-8"
       style="fill:#221f1e;fill-opacity:1;stroke-width:0.999999" />
    <path
       d="m 585.04589,458.99984 c -3.33,0 -7.057,-6.12299 -7.632,-8.71597 -0.575,-2.594 0.996,-4.72902 3.484,-4.11201 1.092,0.27099 3.252,1.307 4.102,1.29101 0.925,-0.0151 2.379,-0.83603 3.587,-1.25201 2.657,-0.916 4.717,1.283 4.01,4.07301 -0.774,3.05099 -4.48,8.71597 -7.551,8.71597 z"
       id="path1-4-1-5"
       style="fill:#221f1e;fill-opacity:1;stroke:none;stroke-width:0;stroke-dasharray:none" />
  </g>
  <g
     id="g2-6-9"
     transform="matrix(-1.9375453,-0.86311387,0.86311387,-1.9375453,834.20325,1639.7347)"
     style="fill:#221f1e;fill-opacity:1">
    <path
       d="m 590.87289,469.91784 c 1.268,-0.45098 1.92,-2.756 1.377,-5.337 -0.519,-2.46697 -2.062,-4.11398 -4.437,-3.26899 -2.06,0.73202 -2.494,3.07699 -1.377,5.33601 1.125,2.276 3.169,3.72099 4.437,3.26998 z"
       id="path28-41-1-2"
       style="fill:#221f1e;fill-opacity:1;stroke-width:0.999999" />
    <path
       d="m 580.57789,469.97585 c -1.323,-0.25096 -2.321,-2.428 -2.182,-5.062 0.13398,-2.51701 1.405,-4.38198 3.882,-3.912 2.149,0.40702 2.938,2.65701 2.181,5.06102 -0.761,2.42098 -2.559,4.16398 -3.881,3.91298 z"
       id="path27-1-4-7"
       style="fill:#221f1e;fill-opacity:1;stroke-width:0.999999" />
    <path
       d="m 596.22089,462.68386 c 1.044,-0.729 1.06,-2.996 -0.082,-5.21499 -1.092,-2.12002 -2.913,-3.236 -4.868,-1.87 -1.696,1.18499 -1.504,3.43298 0.082,5.21499 1.596,1.79301 3.824,2.59899 4.868,1.87 z"
       id="path26-38-2-9"
       style="fill:#221f1e;fill-opacity:1;stroke-width:0.999999" />
    <path
       d="m 574.25289,463.38984 c -1.188,-0.539 -1.629,-2.81999 -0.894,-5.26999 0.704,-2.341 2.33,-3.80598 4.556,-2.79598 1.931,0.877 2.158,3.17798 0.894,5.26998 -1.274,2.10702 -3.367,3.336 -4.556,2.79599 z"
       id="path25-7-3-5"
       style="fill:#221f1e;fill-opacity:1;stroke-width:0.999999" />
    <path
       d="m 585.04589,458.99984 c -3.33,0 -7.057,-6.12299 -7.632,-8.71597 -0.575,-2.594 0.996,-4.72902 3.484,-4.11201 1.092,0.27099 3.252,1.307 4.102,1.29101 0.925,-0.0151 2.379,-0.83603 3.587,-1.25201 2.657,-0.916 4.717,1.283 4.01,4.07301 -0.774,3.05099 -4.48,8.71597 -7.551,8.71597 z"
       id="path1-4-2-4"
       style="fill:#221f1e;fill-opacity:1;stroke:none;stroke-width:0;stroke-dasharray:none" />
  </g>
  <g
     id="g3-3"
     transform="matrix(-1.9375453,-0.86311387,0.86311387,-1.9375453,896.69086,1637.9237)"
     style="fill:#221f1e;fill-opacity:1">
    <path
       d="m 590.87289,469.91784 c 1.268,-0.45098 1.92,-2.756 1.377,-5.337 -0.519,-2.46697 -2.062,-4.11398 -4.437,-3.26899 -2.06,0.73202 -2.494,3.07699 -1.377,5.33601 1.125,2.276 3.169,3.72099 4.437,3.26998 z"
       id="path28-41-5-2-1"
       style="fill:#221f1e;fill-opacity:1;stroke-width:0.999999" />
    <path
       d="m 580.57789,469.97585 c -1.323,-0.25096 -2.321,-2.428 -2.182,-5.062 0.13398,-2.51701 1.405,-4.38198 3.882,-3.912 2.149,0.40702 2.938,2.65701 2.181,5.06102 -0.761,2.42098 -2.559,4.16398 -3.881,3.91298 z"
       id="path27-1-5-1-2"
       style="fill:#221f1e;fill-opacity:1;stroke-width:0.999999" />
    <path
       d="m 596.22089,462.68386 c 1.044,-0.729 1.06,-2.996 -0.082,-5.21499 -1.092,-2.12002 -2.913,-3.236 -4.868,-1.87 -1.696,1.18499 -1.504,3.43298 0.082,5.21499 1.596,1.79301 3.824,2.59899 4.868,1.87 z"
       id="path26-38-1-6-3"
       style="fill:#221f1e;fill-opacity:1;stroke-width:0.999999" />
    <path
       d="m 574.25289,463.38984 c -1.188,-0.539 -1.629,-2.81999 -0.894,-5.26999 0.704,-2.341 2.33,-3.80598 4.556,-2.79598 1.931,0.877 2.158,3.17798 0.894,5.26998 -1.274,2.10702 -3.367,3.336 -4.556,2.79599 z"
       id="path25-7-7-8-3"
       style="fill:#221f1e;fill-opacity:1;stroke-width:0.999999" />
    <path
       d="m 585.04589,458.99984 c -3.33,0 -7.057,-6.12299 -7.632,-8.71597 -0.575,-2.594 0.996,-4.72902 3.484,-4.11201 1.092,0.27099 3.252,1.307 4.102,1.29101 0.925,-0.0151 2.379,-0.83603 3.587,-1.25201 2.657,-0.916 4.717,1.283 4.01,4.07301 -0.774,3.05099 -4.48,8.71597 -7.551,8.71597 z"
       id="path1-4-1-5-4"
       style="fill:#221f1e;fill-opacity:1;stroke:none;stroke-width:0;stroke-dasharray:none" />
  </g>
  <g
     id="g2-6-7"
     transform="matrix(-2.0902475,-0.36043349,0.36043349,-2.0902475,1163.5912,1302.8181)"
     style="fill:#221f1e;fill-opacity:1">
    <path
       d="m 590.87289,469.91784 c 1.268,-0.45098 1.92,-2.756 1.377,-5.337 -0.519,-2.46697 -2.062,-4.11398 -4.437,-3.26899 -2.06,0.73202 -2.494,3.07699 -1.377,5.33601 1.125,2.276 3.169,3.72099 4.437,3.26998 z"
       id="path28-41-1-4"
       style="fill:#221f1e;fill-opacity:1;stroke-width:0.999999" />
    <path
       d="m 580.57789,469.97585 c -1.323,-0.25096 -2.321,-2.428 -2.182,-5.062 0.13398,-2.51701 1.405,-4.38198 3.882,-3.912 2.149,0.40702 2.938,2.65701 2.181,5.06102 -0.761,2.42098 -2.559,4.16398 -3.881,3.91298 z"
       id="path27-1-4-2"
       style="fill:#221f1e;fill-opacity:1;stroke-width:0.999999" />
    <path
       d="m 596.22089,462.68386 c 1.044,-0.729 1.06,-2.996 -0.082,-5.21499 -1.092,-2.12002 -2.913,-3.236 -4.868,-1.87 -1.696,1.18499 -1.504,3.43298 0.082,5.21499 1.596,1.79301 3.824,2.59899 4.868,1.87 z"
       id="path26-38-2-7"
       style="fill:#221f1e;fill-opacity:1;stroke-width:0.999999" />
    <path
       d="m 574.25289,463.38984 c -1.188,-0.539 -1.629,-2.81999 -0.894,-5.26999 0.704,-2.341 2.33,-3.80598 4.556,-2.79598 1.931,0.877 2.158,3.17798 0.894,5.26998 -1.274,2.10702 -3.367,3.336 -4.556,2.79599 z"
       id="path25-7-3-7"
       style="fill:#221f1e;fill-opacity:1;stroke-width:0.999999" />
    <path
       d="m 585.04589,458.99984 c -3.33,0 -7.057,-6.12299 -7.632,-8.71597 -0.575,-2.594 0.996,-4.72902 3.484,-4.11201 1.092,0.27099 3.252,1.307 4.102,1.29101 0.925,-0.0151 2.379,-0.83603 3.587,-1.25201 2.657,-0.916 4.717,1.283 4.01,4.07301 -0.774,3.05099 -4.48,8.71597 -7.551,8.71597 z"
       id="path1-4-2-9"
       style="fill:#221f1e;fill-opacity:1;stroke:none;stroke-width:0;stroke-dasharray:none" />
  </g>
  <g
     id="g3-31"
     transform="matrix(-2.0902475,-0.36043349,0.36043349,-2.0902475,1223.717,1285.7045)"
     style="fill:#221f1e;fill-opacity:1">
    <path
       d="m 590.87289,469.91784 c 1.268,-0.45098 1.92,-2.756 1.377,-5.337 -0.519,-2.46697 -2.062,-4.11398 -4.437,-3.26899 -2.06,0.73202 -2.494,3.07699 -1.377,5.33601 1.125,2.276 3.169,3.72099 4.437,3.26998 z"
       id="path28-41-5-2-9"
       style="fill:#221f1e;fill-opacity:1;stroke-width:0.999999" />
    <path
       d="m 580.57789,469.97585 c -1.323,-0.25096 -2.321,-2.428 -2.182,-5.062 0.13398,-2.51701 1.405,-4.38198 3.882,-3.912 2.149,0.40702 2.938,2.65701 2.181,5.06102 -0.761,2.42098 -2.559,4.16398 -3.881,3.91298 z"
       id="path27-1-5-1-8"
       style="fill:#221f1e;fill-opacity:1;stroke-width:0.999999" />
    <path
       d="m 596.22089,462.68386 c 1.044,-0.729 1.06,-2.996 -0.082,-5.21499 -1.092,-2.12002 -2.913,-3.236 -4.868,-1.87 -1.696,1.18499 -1.504,3.43298 0.082,5.21499 1.596,1.79301 3.824,2.59899 4.868,1.87 z"
       id="path26-38-1-6-6"
       style="fill:#221f1e;fill-opacity:1;stroke-width:0.999999" />
    <path
       d="m 574.25289,463.38984 c -1.188,-0.539 -1.629,-2.81999 -0.894,-5.26999 0.704,-2.341 2.33,-3.80598 4.556,-2.79598 1.931,0.877 2.158,3.17798 0.894,5.26998 -1.274,2.10702 -3.367,3.336 -4.556,2.79599 z"
       id="path25-7-7-8-5"
       style="fill:#221f1e;fill-opacity:1;stroke-width:0.999999" />
    <path
       d="m 585.04589,458.99984 c -3.33,0 -7.057,-6.12299 -7.632,-8.71597 -0.575,-2.594 0.996,-4.72902 3.484,-4.11201 1.092,0.27099 3.252,1.307 4.102,1.29101 0.925,-0.0151 2.379,-0.83603 3.587,-1.25201 2.657,-0.916 4.717,1.283 4.01,4.07301 -0.774,3.05099 -4.48,8.71597 -7.551,8.71597 z"
       id="path1-4-1-5-0"
       style="fill:#221f1e;fill-opacity:1;stroke:none;stroke-width:0;stroke-dasharray:none" />
  </g>
  <g
     id="g2-6-2"
     transform="matrix(-2.1210246,0.01737673,-0.01737673,-2.1210246,1345.9782,986.74179)"
     style="fill:#221f1e;fill-opacity:1">
    <path
       d="m 590.87289,469.91784 c 1.268,-0.45098 1.92,-2.756 1.377,-5.337 -0.519,-2.46697 -2.062,-4.11398 -4.437,-3.26899 -2.06,0.73202 -2.494,3.07699 -1.377,5.33601 1.125,2.276 3.169,3.72099 4.437,3.26998 z"
       id="path28-41-1-48"
       style="fill:#221f1e;fill-opacity:1;stroke-width:0.999999" />
    <path
       d="m 580.57789,469.97585 c -1.323,-0.25096 -2.321,-2.428 -2.182,-5.062 0.13398,-2.51701 1.405,-4.38198 3.882,-3.912 2.149,0.40702 2.938,2.65701 2.181,5.06102 -0.761,2.42098 -2.559,4.16398 -3.881,3.91298 z"
       id="path27-1-4-6"
       style="fill:#221f1e;fill-opacity:1;stroke-width:0.999999" />
    <path
       d="m 596.22089,462.68386 c 1.044,-0.729 1.06,-2.996 -0.082,-5.21499 -1.092,-2.12002 -2.913,-3.236 -4.868,-1.87 -1.696,1.18499 -1.504,3.43298 0.082,5.21499 1.596,1.79301 3.824,2.59899 4.868,1.87 z"
       id="path26-38-2-5"
       style="fill:#221f1e;fill-opacity:1;stroke-width:0.999999" />
    <path
       d="m 574.25289,463.38984 c -1.188,-0.539 -1.629,-2.81999 -0.894,-5.26999 0.704,-2.341 2.33,-3.80598 4.556,-2.79598 1.931,0.877 2.158,3.17798 0.894,5.26998 -1.274,2.10702 -3.367,3.336 -4.556,2.79599 z"
       id="path25-7-3-0"
       style="fill:#221f1e;fill-opacity:1;stroke-width:0.999999" />
    <path
       d="m 585.04589,458.99984 c -3.33,0 -7.057,-6.12299 -7.632,-8.71597 -0.575,-2.594 0.996,-4.72902 3.484,-4.11201 1.092,0.27099 3.252,1.307 4.102,1.29101 0.925,-0.0151 2.379,-0.83603 3.587,-1.25201 2.657,-0.916 4.717,1.283 4.01,4.07301 -0.774,3.05099 -4.48,8.71597 -7.551,8.71597 z"
       id="path1-4-2-90"
       style="fill:#221f1e;fill-opacity:1;stroke:none;stroke-width:0;stroke-dasharray:none" />
  </g>
  <g
     id="g3-9"
     transform="matrix(1.9778897,0.76615916,-0.76615916,1.9778897,-469.54427,-913.20829)"
     style="fill:#221f1e;fill-opacity:1">
    <path
       d="m 590.87289,469.91784 c 1.268,-0.45098 1.92,-2.756 1.377,-5.337 -0.519,-2.46697 -2.062,-4.11398 -4.437,-3.26899 -2.06,0.73202 -2.494,3.07699 -1.377,5.33601 1.125,2.276 3.169,3.72099 4.437,3.26998 z"
       id="path28-41-5-2-7"
       style="fill:#221f1e;fill-opacity:1;stroke-width:0.999999" />
    <path
       d="m 580.57789,469.97585 c -1.323,-0.25096 -2.321,-2.428 -2.182,-5.062 0.13398,-2.51701 1.405,-4.38198 3.882,-3.912 2.149,0.40702 2.938,2.65701 2.181,5.06102 -0.761,2.42098 -2.559,4.16398 -3.881,3.91298 z"
       id="path27-1-5-1-3"
       style="fill:#221f1e;fill-opacity:1;stroke-width:0.999999" />
    <path
       d="m 596.22089,462.68386 c 1.044,-0.729 1.06,-2.996 -0.082,-5.21499 -1.092,-2.12002 -2.913,-3.236 -4.868,-1.87 -1.696,1.18499 -1.504,3.43298 0.082,5.21499 1.596,1.79301 3.824,2.59899 4.868,1.87 z"
       id="path26-38-1-6-7"
       style="fill:#221f1e;fill-opacity:1;stroke-width:0.999999" />
    <path
       d="m 574.25289,463.38984 c -1.188,-0.539 -1.629,-2.81999 -0.894,-5.26999 0.704,-2.341 2.33,-3.80598 4.556,-2.79598 1.931,0.877 2.158,3.17798 0.894,5.26998 -1.274,2.10702 -3.367,3.336 -4.556,2.79599 z"
       id="path25-7-7-8-2"
       style="fill:#221f1e;fill-opacity:1;stroke-width:0.999999" />
    <path
       d="m 585.04589,458.99984 c -3.33,0 -7.057,-6.12299 -7.632,-8.71597 -0.575,-2.594 0.996,-4.72902 3.484,-4.11201 1.092,0.27099 3.252,1.307 4.102,1.29101 0.925,-0.0151 2.379,-0.83603 3.587,-1.25201 2.657,-0.916 4.717,1.283 4.01,4.07301 -0.774,3.05099 -4.48,8.71597 -7.551,8.71597 z"
       id="path1-4-1-5-6"
       style="fill:#221f1e;fill-opacity:1;stroke:none;stroke-width:0;stroke-dasharray:none" />
  </g>
  <g
     id="g2-6-76-7"
     transform="matrix(1.9778897,0.76615916,-0.76615916,1.9778897,-468.60301,-816.6112)"
     style="fill:#221f1e;fill-opacity:1">
    <path
       d="m 590.87289,469.91784 c 1.268,-0.45098 1.92,-2.756 1.377,-5.337 -0.519,-2.46697 -2.062,-4.11398 -4.437,-3.26899 -2.06,0.73202 -2.494,3.07699 -1.377,5.33601 1.125,2.276 3.169,3.72099 4.437,3.26998 z"
       id="path28-41-1-3-5"
       style="fill:#221f1e;fill-opacity:1;stroke-width:0.999999" />
    <path
       d="m 580.57789,469.97585 c -1.323,-0.25096 -2.321,-2.428 -2.182,-5.062 0.13398,-2.51701 1.405,-4.38198 3.882,-3.912 2.149,0.40702 2.938,2.65701 2.181,5.06102 -0.761,2.42098 -2.559,4.16398 -3.881,3.91298 z"
       id="path27-1-4-61-4"
       style="fill:#221f1e;fill-opacity:1;stroke-width:0.999999" />
    <path
       d="m 596.22089,462.68386 c 1.044,-0.729 1.06,-2.996 -0.082,-5.21499 -1.092,-2.12002 -2.913,-3.236 -4.868,-1.87 -1.696,1.18499 -1.504,3.43298 0.082,5.21499 1.596,1.79301 3.824,2.59899 4.868,1.87 z"
       id="path26-38-2-54-1"
       style="fill:#221f1e;fill-opacity:1;stroke-width:0.999999" />
    <path
       d="m 574.25289,463.38984 c -1.188,-0.539 -1.629,-2.81999 -0.894,-5.26999 0.704,-2.341 2.33,-3.80598 4.556,-2.79598 1.931,0.877 2.158,3.17798 0.894,5.26998 -1.274,2.10702 -3.367,3.336 -4.556,2.79599 z"
       id="path25-7-3-2-2"
       style="fill:#221f1e;fill-opacity:1;stroke-width:0.999999" />
    <path
       d="m 585.04589,458.99984 c -3.33,0 -7.057,-6.12299 -7.632,-8.71597 -0.575,-2.594 0.996,-4.72902 3.484,-4.11201 1.092,0.27099 3.252,1.307 4.102,1.29101 0.925,-0.0151 2.379,-0.83603 3.587,-1.25201 2.657,-0.916 4.717,1.283 4.01,4.07301 -0.774,3.05099 -4.48,8.71597 -7.551,8.71597 z"
       id="path1-4-2-0-0"
       style="fill:#221f1e;fill-opacity:1;stroke:none;stroke-width:0;stroke-dasharray:none" />
  </g>
  <g
     id="g3-9-0"
     transform="matrix(1.9778897,0.76615916,-0.76615916,1.9778897,-530.92442,-811.70965)"
     style="fill:#221f1e;fill-opacity:1">
    <path
       d="m 590.87289,469.91784 c 1.268,-0.45098 1.92,-2.756 1.377,-5.337 -0.519,-2.46697 -2.062,-4.11398 -4.437,-3.26899 -2.06,0.73202 -2.494,3.07699 -1.377,5.33601 1.125,2.276 3.169,3.72099 4.437,3.26998 z"
       id="path28-41-5-2-7-1"
       style="fill:#221f1e;fill-opacity:1;stroke-width:0.999999" />
    <path
       d="m 580.57789,469.97585 c -1.323,-0.25096 -2.321,-2.428 -2.182,-5.062 0.13398,-2.51701 1.405,-4.38198 3.882,-3.912 2.149,0.40702 2.938,2.65701 2.181,5.06102 -0.761,2.42098 -2.559,4.16398 -3.881,3.91298 z"
       id="path27-1-5-1-3-4"
       style="fill:#221f1e;fill-opacity:1;stroke-width:0.999999" />
    <path
       d="m 596.22089,462.68386 c 1.044,-0.729 1.06,-2.996 -0.082,-5.21499 -1.092,-2.12002 -2.913,-3.236 -4.868,-1.87 -1.696,1.18499 -1.504,3.43298 0.082,5.21499 1.596,1.79301 3.824,2.59899 4.868,1.87 z"
       id="path26-38-1-6-7-6"
       style="fill:#221f1e;fill-opacity:1;stroke-width:0.999999" />
    <path
       d="m 574.25289,463.38984 c -1.188,-0.539 -1.629,-2.81999 -0.894,-5.26999 0.704,-2.341 2.33,-3.80598 4.556,-2.79598 1.931,0.877 2.158,3.17798 0.894,5.26998 -1.274,2.10702 -3.367,3.336 -4.556,2.79599 z"
       id="path25-7-7-8-2-0"
       style="fill:#221f1e;fill-opacity:1;stroke-width:0.999999" />
    <path
       d="m 585.04589,458.99984 c -3.33,0 -7.057,-6.12299 -7.632,-8.71597 -0.575,-2.594 0.996,-4.72902 3.484,-4.11201 1.092,0.27099 3.252,1.307 4.102,1.29101 0.925,-0.0151 2.379,-0.83603 3.587,-1.25201 2.657,-0.916 4.717,1.283 4.01,4.07301 -0.774,3.05099 -4.48,8.71597 -7.551,8.71597 z"
       id="path1-4-1-5-6-7"
       style="fill:#221f1e;fill-opacity:1;stroke:none;stroke-width:0;stroke-dasharray:none" />
  </g>
  <g
     id="g2-6-76-73"
     transform="matrix(1.9778897,0.76615916,-0.76615916,1.9778897,-526.7285,-704.0096)"
     style="fill:#221f1e;fill-opacity:1;stroke-width:0.999617;stroke-dasharray:none">
    <path
       d="m 590.87289,469.91784 c 1.268,-0.45098 1.92,-2.756 1.377,-5.337 -0.519,-2.46697 -2.062,-4.11398 -4.437,-3.26899 -2.06,0.73202 -2.494,3.07699 -1.377,5.33601 1.125,2.276 3.169,3.72099 4.437,3.26998 z"
       id="path28-41-1-3-3"
       style="fill:#221f1e;fill-opacity:1;stroke-width:0.999617;stroke-dasharray:none" />
    <path
       d="m 580.57789,469.97585 c -1.323,-0.25096 -2.321,-2.428 -2.182,-5.062 0.13398,-2.51701 1.405,-4.38198 3.882,-3.912 2.149,0.40702 2.938,2.65701 2.181,5.06102 -0.761,2.42098 -2.559,4.16398 -3.881,3.91298 z"
       id="path27-1-4-61-5"
       style="fill:#221f1e;fill-opacity:1;stroke-width:0.999617;stroke-dasharray:none" />
    <path
       d="m 596.22089,462.68386 c 1.044,-0.729 1.06,-2.996 -0.082,-5.21499 -1.092,-2.12002 -2.913,-3.236 -4.868,-1.87 -1.696,1.18499 -1.504,3.43298 0.082,5.21499 1.596,1.79301 3.824,2.59899 4.868,1.87 z"
       id="path26-38-2-54-9"
       style="fill:#221f1e;fill-opacity:1;stroke-width:0.999617;stroke-dasharray:none" />
    <path
       d="m 574.25289,463.38984 c -1.188,-0.539 -1.629,-2.81999 -0.894,-5.26999 0.704,-2.341 2.33,-3.80598 4.556,-2.79598 1.931,0.877 2.158,3.17798 0.894,5.26998 -1.274,2.10702 -3.367,3.336 -4.556,2.79599 z"
       id="path25-7-3-2-9"
       style="fill:#221f1e;fill-opacity:1;stroke-width:0.999617;stroke-dasharray:none" />
    <path
       d="m 585.04589,458.99984 c -3.33,0 -7.057,-6.12299 -7.632,-8.71597 -0.575,-2.594 0.996,-4.72902 3.484,-4.11201 1.092,0.27099 3.252,1.307 4.102,1.29101 0.925,-0.0151 2.379,-0.83603 3.587,-1.25201 2.657,-0.916 4.717,1.283 4.01,4.07301 -0.774,3.05099 -4.48,8.71597 -7.551,8.71597 z"
       id="path1-4-2-0-8"
       style="fill:#221f1e;fill-opacity:1;stroke:none;stroke-width:0.999617;stroke-dasharray:none" />
  </g>
  <g
     id="g3-9-1"
     transform="matrix(1.9778897,0.76615916,-0.76615916,1.9778897,-589.04992,-699.10805)"
     style="fill:#221f1e;fill-opacity:1">
    <path
       d="m 590.87289,469.91784 c 1.268,-0.45098 1.92,-2.756 1.377,-5.337 -0.519,-2.46697 -2.062,-4.11398 -4.437,-3.26899 -2.06,0.73202 -2.494,3.07699 -1.377,5.33601 1.125,2.276 3.169,3.72099 4.437,3.26998 z"
       id="path28-41-5-2-7-8"
       style="fill:#221f1e;fill-opacity:1;stroke-width:0.999999" />
    <path
       d="m 580.57789,469.97585 c -1.323,-0.25096 -2.321,-2.428 -2.182,-5.062 0.13398,-2.51701 1.405,-4.38198 3.882,-3.912 2.149,0.40702 2.938,2.65701 2.181,5.06102 -0.761,2.42098 -2.559,4.16398 -3.881,3.91298 z"
       id="path27-1-5-1-3-2"
       style="fill:#221f1e;fill-opacity:1;stroke-width:0.999999" />
    <path
       d="m 596.22089,462.68386 c 1.044,-0.729 1.06,-2.996 -0.082,-5.21499 -1.092,-2.12002 -2.913,-3.236 -4.868,-1.87 -1.696,1.18499 -1.504,3.43298 0.082,5.21499 1.596,1.79301 3.824,2.59899 4.868,1.87 z"
       id="path26-38-1-6-7-66"
       style="fill:#221f1e;fill-opacity:1;stroke-width:0.999999" />
    <path
       d="m 574.25289,463.38984 c -1.188,-0.539 -1.629,-2.81999 -0.894,-5.26999 0.704,-2.341 2.33,-3.80598 4.556,-2.79598 1.931,0.877 2.158,3.17798 0.894,5.26998 -1.274,2.10702 -3.367,3.336 -4.556,2.79599 z"
       id="path25-7-7-8-2-03"
       style="fill:#221f1e;fill-opacity:1;stroke-width:0.999999" />
    <path
       d="m 585.04589,458.99984 c -3.33,0 -7.057,-6.12299 -7.632,-8.71597 -0.575,-2.594 0.996,-4.72902 3.484,-4.11201 1.092,0.27099 3.252,1.307 4.102,1.29101 0.925,-0.0151 2.379,-0.83603 3.587,-1.25201 2.657,-0.916 4.717,1.283 4.01,4.07301 -0.774,3.05099 -4.48,8.71597 -7.551,8.71597 z"
       id="path1-4-1-5-6-8"
       style="fill:#221f1e;fill-opacity:1;stroke:none;stroke-width:0;stroke-dasharray:none" />
  </g>
  <g
     id="g2-6-76-0"
     transform="matrix(1.9778897,0.76615916,-0.76615916,1.9778897,-572.04196,-587.65878)"
     style="fill:#221f1e;fill-opacity:1">
    <path
       d="m 590.87289,469.91784 c 1.268,-0.45098 1.92,-2.756 1.377,-5.337 -0.519,-2.46697 -2.062,-4.11398 -4.437,-3.26899 -2.06,0.73202 -2.494,3.07699 -1.377,5.33601 1.125,2.276 3.169,3.72099 4.437,3.26998 z"
       id="path28-41-1-3-9"
       style="fill:#221f1e;fill-opacity:1;stroke-width:0.999999" />
    <path
       d="m 580.57789,469.97585 c -1.323,-0.25096 -2.321,-2.428 -2.182,-5.062 0.13398,-2.51701 1.405,-4.38198 3.882,-3.912 2.149,0.40702 2.938,2.65701 2.181,5.06102 -0.761,2.42098 -2.559,4.16398 -3.881,3.91298 z"
       id="path27-1-4-61-47"
       style="fill:#221f1e;fill-opacity:1;stroke-width:0.999999" />
    <path
       d="m 596.22089,462.68386 c 1.044,-0.729 1.06,-2.996 -0.082,-5.21499 -1.092,-2.12002 -2.913,-3.236 -4.868,-1.87 -1.696,1.18499 -1.504,3.43298 0.082,5.21499 1.596,1.79301 3.824,2.59899 4.868,1.87 z"
       id="path26-38-2-54-8"
       style="fill:#221f1e;fill-opacity:1;stroke-width:0.999999" />
    <path
       d="m 574.25289,463.38984 c -1.188,-0.539 -1.629,-2.81999 -0.894,-5.26999 0.704,-2.341 2.33,-3.80598 4.556,-2.79598 1.931,0.877 2.158,3.17798 0.894,5.26998 -1.274,2.10702 -3.367,3.336 -4.556,2.79599 z"
       id="path25-7-3-2-3"
       style="fill:#221f1e;fill-opacity:1;stroke-width:0.999999" />
    <path
       d="m 585.04589,458.99984 c -3.33,0 -7.057,-6.12299 -7.632,-8.71597 -0.575,-2.594 0.996,-4.72902 3.484,-4.11201 1.092,0.27099 3.252,1.307 4.102,1.29101 0.925,-0.0151 2.379,-0.83603 3.587,-1.25201 2.657,-0.916 4.717,1.283 4.01,4.07301 -0.774,3.05099 -4.48,8.71597 -7.551,8.71597 z"
       id="path1-4-2-0-5"
       style="fill:#221f1e;fill-opacity:1;stroke:none;stroke-width:0;stroke-dasharray:none" />
  </g>
  <g
     id="g3-9-12"
     transform="matrix(1.9778897,0.76615916,-0.76615916,1.9778897,-634.36335,-582.75723)"
     style="fill:#221f1e;fill-opacity:1">
    <path
       d="m 590.87289,469.91784 c 1.268,-0.45098 1.92,-2.756 1.377,-5.337 -0.519,-2.46697 -2.062,-4.11398 -4.437,-3.26899 -2.06,0.73202 -2.494,3.07699 -1.377,5.33601 1.125,2.276 3.169,3.72099 4.437,3.26998 z"
       id="path28-41-5-2-7-0"
       style="fill:#221f1e;fill-opacity:1;stroke-width:0.999999" />
    <path
       d="m 580.57789,469.97585 c -1.323,-0.25096 -2.321,-2.428 -2.182,-5.062 0.13398,-2.51701 1.405,-4.38198 3.882,-3.912 2.149,0.40702 2.938,2.65701 2.181,5.06102 -0.761,2.42098 -2.559,4.16398 -3.881,3.91298 z"
       id="path27-1-5-1-3-1"
       style="fill:#221f1e;fill-opacity:1;stroke-width:0.999999" />
    <path
       d="m 596.22089,462.68386 c 1.044,-0.729 1.06,-2.996 -0.082,-5.21499 -1.092,-2.12002 -2.913,-3.236 -4.868,-1.87 -1.696,1.18499 -1.504,3.43298 0.082,5.21499 1.596,1.79301 3.824,2.59899 4.868,1.87 z"
       id="path26-38-1-6-7-64"
       style="fill:#221f1e;fill-opacity:1;stroke-width:0.999999" />
    <path
       d="m 574.25289,463.38984 c -1.188,-0.539 -1.629,-2.81999 -0.894,-5.26999 0.704,-2.341 2.33,-3.80598 4.556,-2.79598 1.931,0.877 2.158,3.17798 0.894,5.26998 -1.274,2.10702 -3.367,3.336 -4.556,2.79599 z"
       id="path25-7-7-8-2-06"
       style="fill:#221f1e;fill-opacity:1;stroke-width:0.999999" />
    <path
       d="m 585.04589,458.99984 c -3.33,0 -7.057,-6.12299 -7.632,-8.71597 -0.575,-2.594 0.996,-4.72902 3.484,-4.11201 1.092,0.27099 3.252,1.307 4.102,1.29101 0.925,-0.0151 2.379,-0.83603 3.587,-1.25201 2.657,-0.916 4.717,1.283 4.01,4.07301 -0.774,3.05099 -4.48,8.71597 -7.551,8.71597 z"
       id="path1-4-1-5-6-1"
       style="fill:#221f1e;fill-opacity:1;stroke:none;stroke-width:0;stroke-dasharray:none" />
  </g>
  <g
     id="g2-6-3"
     transform="matrix(-1.3853994,0.58538056,-0.58538056,-1.3853994,1392.9526,553.48321)"
     style="fill:#221f1e;fill-opacity:1">
    <path
       d="m 590.87289,469.91784 c 1.268,-0.45098 1.92,-2.756 1.377,-5.337 -0.519,-2.46697 -2.062,-4.11398 -4.437,-3.26899 -2.06,0.73202 -2.494,3.07699 -1.377,5.33601 1.125,2.276 3.169,3.72099 4.437,3.26998 z"
       id="path28-41-1-49"
       style="fill:#221f1e;fill-opacity:1;stroke-width:0.999999" />
    <path
       d="m 580.57789,469.97585 c -1.323,-0.25096 -2.321,-2.428 -2.182,-5.062 0.13398,-2.51701 1.405,-4.38198 3.882,-3.912 2.149,0.40702 2.938,2.65701 2.181,5.06102 -0.761,2.42098 -2.559,4.16398 -3.881,3.91298 z"
       id="path27-1-4-65"
       style="fill:#221f1e;fill-opacity:1;stroke-width:0.999999" />
    <path
       d="m 596.22089,462.68386 c 1.044,-0.729 1.06,-2.996 -0.082,-5.21499 -1.092,-2.12002 -2.913,-3.236 -4.868,-1.87 -1.696,1.18499 -1.504,3.43298 0.082,5.21499 1.596,1.79301 3.824,2.59899 4.868,1.87 z"
       id="path26-38-2-1"
       style="fill:#221f1e;fill-opacity:1;stroke-width:0.999999" />
    <path
       d="m 574.25289,463.38984 c -1.188,-0.539 -1.629,-2.81999 -0.894,-5.26999 0.704,-2.341 2.33,-3.80598 4.556,-2.79598 1.931,0.877 2.158,3.17798 0.894,5.26998 -1.274,2.10702 -3.367,3.336 -4.556,2.79599 z"
       id="path25-7-3-09"
       style="fill:#221f1e;fill-opacity:1;stroke-width:0.999999" />
    <path
       d="m 585.04589,458.99984 c -3.33,0 -7.057,-6.12299 -7.632,-8.71597 -0.575,-2.594 0.996,-4.72902 3.484,-4.11201 1.092,0.27099 3.252,1.307 4.102,1.29101 0.925,-0.0151 2.379,-0.83603 3.587,-1.25201 2.657,-0.916 4.717,1.283 4.01,4.07301 -0.774,3.05099 -4.48,8.71597 -7.551,8.71597 z"
       id="path1-4-2-96"
       style="fill:#221f1e;fill-opacity:1;stroke:none;stroke-width:0;stroke-dasharray:none" />
  </g>
  <g
     id="g3-8"
     transform="matrix(-1.3853994,0.58538056,-0.58538056,-1.3853994,1422.2794,520.24515)"
     style="fill:#221f1e;fill-opacity:1">
    <path
       d="m 590.87289,469.91784 c 1.268,-0.45098 1.92,-2.756 1.377,-5.337 -0.519,-2.46697 -2.062,-4.11398 -4.437,-3.26899 -2.06,0.73202 -2.494,3.07699 -1.377,5.33601 1.125,2.276 3.169,3.72099 4.437,3.26998 z"
       id="path28-41-5-2-3"
       style="fill:#221f1e;fill-opacity:1;stroke-width:0.999999" />
    <path
       d="m 580.57789,469.97585 c -1.323,-0.25096 -2.321,-2.428 -2.182,-5.062 0.13398,-2.51701 1.405,-4.38198 3.882,-3.912 2.149,0.40702 2.938,2.65701 2.181,5.06102 -0.761,2.42098 -2.559,4.16398 -3.881,3.91298 z"
       id="path27-1-5-1-4"
       style="fill:#221f1e;fill-opacity:1;stroke-width:0.999999" />
    <path
       d="m 596.22089,462.68386 c 1.044,-0.729 1.06,-2.996 -0.082,-5.21499 -1.092,-2.12002 -2.913,-3.236 -4.868,-1.87 -1.696,1.18499 -1.504,3.43298 0.082,5.21499 1.596,1.79301 3.824,2.59899 4.868,1.87 z"
       id="path26-38-1-6-8"
       style="fill:#221f1e;fill-opacity:1;stroke-width:0.999999" />
    <path
       d="m 574.25289,463.38984 c -1.188,-0.539 -1.629,-2.81999 -0.894,-5.26999 0.704,-2.341 2.33,-3.80598 4.556,-2.79598 1.931,0.877 2.158,3.17798 0.894,5.26998 -1.274,2.10702 -3.367,3.336 -4.556,2.79599 z"
       id="path25-7-7-8-4"
       style="fill:#221f1e;fill-opacity:1;stroke-width:0.999999" />
    <path
       d="m 585.04589,458.99984 c -3.33,0 -7.057,-6.12299 -7.632,-8.71597 -0.575,-2.594 0.996,-4.72902 3.484,-4.11201 1.092,0.27099 3.252,1.307 4.102,1.29101 0.925,-0.0151 2.379,-0.83603 3.587,-1.25201 2.657,-0.916 4.717,1.283 4.01,4.07301 -0.774,3.05099 -4.48,8.71597 -7.551,8.71597 z"
       id="path1-4-1-5-9"
       style="fill:#221f1e;fill-opacity:1;stroke:none;stroke-width:0;stroke-dasharray:none" />
  </g>
  <g
     id="g2-6-3-3"
     transform="matrix(-1.3853994,0.58538056,-0.58538056,-1.3853994,1358.2854,498.46748)"
     style="fill:#221f1e;fill-opacity:1">
    <path
       d="m 590.87289,469.91784 c 1.268,-0.45098 1.92,-2.756 1.377,-5.337 -0.519,-2.46697 -2.062,-4.11398 -4.437,-3.26899 -2.06,0.73202 -2.494,3.07699 -1.377,5.33601 1.125,2.276 3.169,3.72099 4.437,3.26998 z"
       id="path28-41-1-49-3"
       style="fill:#221f1e;fill-opacity:1;stroke-width:0.999999" />
    <path
       d="m 580.57789,469.97585 c -1.323,-0.25096 -2.321,-2.428 -2.182,-5.062 0.13398,-2.51701 1.405,-4.38198 3.882,-3.912 2.149,0.40702 2.938,2.65701 2.181,5.06102 -0.761,2.42098 -2.559,4.16398 -3.881,3.91298 z"
       id="path27-1-4-65-3"
       style="fill:#221f1e;fill-opacity:1;stroke-width:0.999999" />
    <path
       d="m 596.22089,462.68386 c 1.044,-0.729 1.06,-2.996 -0.082,-5.21499 -1.092,-2.12002 -2.913,-3.236 -4.868,-1.87 -1.696,1.18499 -1.504,3.43298 0.082,5.21499 1.596,1.79301 3.824,2.59899 4.868,1.87 z"
       id="path26-38-2-1-7"
       style="fill:#221f1e;fill-opacity:1;stroke-width:0.999999" />
    <path
       d="m 574.25289,463.38984 c -1.188,-0.539 -1.629,-2.81999 -0.894,-5.26999 0.704,-2.341 2.33,-3.80598 4.556,-2.79598 1.931,0.877 2.158,3.17798 0.894,5.26998 -1.274,2.10702 -3.367,3.336 -4.556,2.79599 z"
       id="path25-7-3-09-4"
       style="fill:#221f1e;fill-opacity:1;stroke-width:0.999999" />
    <path
       d="m 585.04589,458.99984 c -3.33,0 -7.057,-6.12299 -7.632,-8.71597 -0.575,-2.594 0.996,-4.72902 3.484,-4.11201 1.092,0.27099 3.252,1.307 4.102,1.29101 0.925,-0.0151 2.379,-0.83603 3.587,-1.25201 2.657,-0.916 4.717,1.283 4.01,4.07301 -0.774,3.05099 -4.48,8.71597 -7.551,8.71597 z"
       id="path1-4-2-96-3"
       style="fill:#221f1e;fill-opacity:1;stroke:none;stroke-width:0;stroke-dasharray:none" />
  </g>
  <g
     id="g3-8-8"
     transform="matrix(-1.3853994,0.58538056,-0.58538056,-1.3853994,1387.6121,465.22937)"
     style="fill:#221f1e;fill-opacity:1">
    <path
       d="m 590.87289,469.91784 c 1.268,-0.45098 1.92,-2.756 1.377,-5.337 -0.519,-2.46697 -2.062,-4.11398 -4.437,-3.26899 -2.06,0.73202 -2.494,3.07699 -1.377,5.33601 1.125,2.276 3.169,3.72099 4.437,3.26998 z"
       id="path28-41-5-2-3-0"
       style="fill:#221f1e;fill-opacity:1;stroke-width:0.999999" />
    <path
       d="m 580.57789,469.97585 c -1.323,-0.25096 -2.321,-2.428 -2.182,-5.062 0.13398,-2.51701 1.405,-4.38198 3.882,-3.912 2.149,0.40702 2.938,2.65701 2.181,5.06102 -0.761,2.42098 -2.559,4.16398 -3.881,3.91298 z"
       id="path27-1-5-1-4-8"
       style="fill:#221f1e;fill-opacity:1;stroke-width:0.999999" />
    <path
       d="m 596.22089,462.68386 c 1.044,-0.729 1.06,-2.996 -0.082,-5.21499 -1.092,-2.12002 -2.913,-3.236 -4.868,-1.87 -1.696,1.18499 -1.504,3.43298 0.082,5.21499 1.596,1.79301 3.824,2.59899 4.868,1.87 z"
       id="path26-38-1-6-8-8"
       style="fill:#221f1e;fill-opacity:1;stroke-width:0.999999" />
    <path
       d="m 574.25289,463.38984 c -1.188,-0.539 -1.629,-2.81999 -0.894,-5.26999 0.704,-2.341 2.33,-3.80598 4.556,-2.79598 1.931,0.877 2.158,3.17798 0.894,5.26998 -1.274,2.10702 -3.367,3.336 -4.556,2.79599 z"
       id="path25-7-7-8-4-0"
       style="fill:#221f1e;fill-opacity:1;stroke-width:0.999999" />
    <path
       d="m 585.04589,458.99984 c -3.33,0 -7.057,-6.12299 -7.632,-8.71597 -0.575,-2.594 0.996,-4.72902 3.484,-4.11201 1.092,0.27099 3.252,1.307 4.102,1.29101 0.925,-0.0151 2.379,-0.83603 3.587,-1.25201 2.657,-0.916 4.717,1.283 4.01,4.07301 -0.774,3.05099 -4.48,8.71597 -7.551,8.71597 z"
       id="path1-4-1-5-9-6"
       style="fill:#221f1e;fill-opacity:1;stroke:none;stroke-width:0;stroke-dasharray:none" />
  </g>
  <g
     id="g2-6-3-9"
     transform="matrix(0.02257225,-1.5045559,1.5045559,0.02257225,-686.43766,1618.4321)"
     style="fill:#221f1e;fill-opacity:1">
    <path
       d="m 590.87289,469.91784 c 1.268,-0.45098 1.92,-2.756 1.377,-5.337 -0.519,-2.46697 -2.062,-4.11398 -4.437,-3.26899 -2.06,0.73202 -2.494,3.07699 -1.377,5.33601 1.125,2.276 3.169,3.72099 4.437,3.26998 z"
       id="path28-41-1-49-7"
       style="fill:#221f1e;fill-opacity:1;stroke-width:0.999999" />
    <path
       d="m 580.57789,469.97585 c -1.323,-0.25096 -2.321,-2.428 -2.182,-5.062 0.13398,-2.51701 1.405,-4.38198 3.882,-3.912 2.149,0.40702 2.938,2.65701 2.181,5.06102 -0.761,2.42098 -2.559,4.16398 -3.881,3.91298 z"
       id="path27-1-4-65-2"
       style="fill:#221f1e;fill-opacity:1;stroke-width:0.999999" />
    <path
       d="m 596.22089,462.68386 c 1.044,-0.729 1.06,-2.996 -0.082,-5.21499 -1.092,-2.12002 -2.913,-3.236 -4.868,-1.87 -1.696,1.18499 -1.504,3.43298 0.082,5.21499 1.596,1.79301 3.824,2.59899 4.868,1.87 z"
       id="path26-38-2-1-2"
       style="fill:#221f1e;fill-opacity:1;stroke-width:0.999999" />
    <path
       d="m 574.25289,463.38984 c -1.188,-0.539 -1.629,-2.81999 -0.894,-5.26999 0.704,-2.341 2.33,-3.80598 4.556,-2.79598 1.931,0.877 2.158,3.17798 0.894,5.26998 -1.274,2.10702 -3.367,3.336 -4.556,2.79599 z"
       id="path25-7-3-09-8"
       style="fill:#221f1e;fill-opacity:1;stroke-width:0.999999" />
    <path
       d="m 585.04589,458.99984 c -3.33,0 -7.057,-6.12299 -7.632,-8.71597 -0.575,-2.594 0.996,-4.72902 3.484,-4.11201 1.092,0.27099 3.252,1.307 4.102,1.29101 0.925,-0.0151 2.379,-0.83603 3.587,-1.25201 2.657,-0.916 4.717,1.283 4.01,4.07301 -0.774,3.05099 -4.48,8.71597 -7.551,8.71597 z"
       id="path1-4-2-96-2"
       style="fill:#221f1e;fill-opacity:1;stroke:none;stroke-width:0;stroke-dasharray:none" />
  </g>
  <g
     id="g2-6-3-7"
     transform="matrix(0.6605328,1.3511841,-1.3511841,0.6605328,348.17002,-490.81133)"
     style="fill:#221f1e;fill-opacity:1">
    <path
       d="m 590.87289,469.91784 c 1.268,-0.45098 1.92,-2.756 1.377,-5.337 -0.519,-2.46697 -2.062,-4.11398 -4.437,-3.26899 -2.06,0.73202 -2.494,3.07699 -1.377,5.33601 1.125,2.276 3.169,3.72099 4.437,3.26998 z"
       id="path28-41-1-49-6"
       style="fill:#221f1e;fill-opacity:1;stroke-width:0.999999" />
    <path
       d="m 580.57789,469.97585 c -1.323,-0.25096 -2.321,-2.428 -2.182,-5.062 0.13398,-2.51701 1.405,-4.38198 3.882,-3.912 2.149,0.40702 2.938,2.65701 2.181,5.06102 -0.761,2.42098 -2.559,4.16398 -3.881,3.91298 z"
       id="path27-1-4-65-29"
       style="fill:#221f1e;fill-opacity:1;stroke-width:0.999999" />
    <path
       d="m 596.22089,462.68386 c 1.044,-0.729 1.06,-2.996 -0.082,-5.21499 -1.092,-2.12002 -2.913,-3.236 -4.868,-1.87 -1.696,1.18499 -1.504,3.43298 0.082,5.21499 1.596,1.79301 3.824,2.59899 4.868,1.87 z"
       id="path26-38-2-1-5"
       style="fill:#221f1e;fill-opacity:1;stroke-width:0.999999" />
    <path
       d="m 574.25289,463.38984 c -1.188,-0.539 -1.629,-2.81999 -0.894,-5.26999 0.704,-2.341 2.33,-3.80598 4.556,-2.79598 1.931,0.877 2.158,3.17798 0.894,5.26998 -1.274,2.10702 -3.367,3.336 -4.556,2.79599 z"
       id="path25-7-3-09-2"
       style="fill:#221f1e;fill-opacity:1;stroke-width:0.999999" />
    <path
       d="m 585.04589,458.99984 c -3.33,0 -7.057,-6.12299 -7.632,-8.71597 -0.575,-2.594 0.996,-4.72902 3.484,-4.11201 1.092,0.27099 3.252,1.307 4.102,1.29101 0.925,-0.0151 2.379,-0.83603 3.587,-1.25201 2.657,-0.916 4.717,1.283 4.01,4.07301 -0.774,3.05099 -4.48,8.71597 -7.551,8.71597 z"
       id="path1-4-2-96-0"
       style="fill:#221f1e;fill-opacity:1;stroke:none;stroke-width:0;stroke-dasharray:none" />
  </g>
  <g
     id="g3-8-0"
     transform="matrix(0.6605328,1.3511841,-1.3511841,0.6605328,313.37255,-518.26975)"
     style="fill:#221f1e;fill-opacity:1">
    <path
       d="m 590.87289,469.91784 c 1.268,-0.45098 1.92,-2.756 1.377,-5.337 -0.519,-2.46697 -2.062,-4.11398 -4.437,-3.26899 -2.06,0.73202 -2.494,3.07699 -1.377,5.33601 1.125,2.276 3.169,3.72099 4.437,3.26998 z"
       id="path28-41-5-2-3-3"
       style="fill:#221f1e;fill-opacity:1;stroke-width:0.999999" />
    <path
       d="m 580.57789,469.97585 c -1.323,-0.25096 -2.321,-2.428 -2.182,-5.062 0.13398,-2.51701 1.405,-4.38198 3.882,-3.912 2.149,0.40702 2.938,2.65701 2.181,5.06102 -0.761,2.42098 -2.559,4.16398 -3.881,3.91298 z"
       id="path27-1-5-1-4-9"
       style="fill:#221f1e;fill-opacity:1;stroke-width:0.999999" />
    <path
       d="m 596.22089,462.68386 c 1.044,-0.729 1.06,-2.996 -0.082,-5.21499 -1.092,-2.12002 -2.913,-3.236 -4.868,-1.87 -1.696,1.18499 -1.504,3.43298 0.082,5.21499 1.596,1.79301 3.824,2.59899 4.868,1.87 z"
       id="path26-38-1-6-8-1"
       style="fill:#221f1e;fill-opacity:1;stroke-width:0.999999" />
    <path
       d="m 574.25289,463.38984 c -1.188,-0.539 -1.629,-2.81999 -0.894,-5.26999 0.704,-2.341 2.33,-3.80598 4.556,-2.79598 1.931,0.877 2.158,3.17798 0.894,5.26998 -1.274,2.10702 -3.367,3.336 -4.556,2.79599 z"
       id="path25-7-7-8-4-81"
       style="fill:#221f1e;fill-opacity:1;stroke-width:0.999999" />
    <path
       d="m 585.04589,458.99984 c -3.33,0 -7.057,-6.12299 -7.632,-8.71597 -0.575,-2.594 0.996,-4.72902 3.484,-4.11201 1.092,0.27099 3.252,1.307 4.102,1.29101 0.925,-0.0151 2.379,-0.83603 3.587,-1.25201 2.657,-0.916 4.717,1.283 4.01,4.07301 -0.774,3.05099 -4.48,8.71597 -7.551,8.71597 z"
       id="path1-4-1-5-9-9"
       style="fill:#221f1e;fill-opacity:1;stroke:none;stroke-width:0;stroke-dasharray:none" />
  </g>
  <g
     id="g2-6-3-3-5"
     transform="matrix(0.6605328,1.3511841,-1.3511841,0.6605328,295.13985,-453.17693)"
     style="fill:#221f1e;fill-opacity:1">
    <path
       d="m 590.87289,469.91784 c 1.268,-0.45098 1.92,-2.756 1.377,-5.337 -0.519,-2.46697 -2.062,-4.11398 -4.437,-3.26899 -2.06,0.73202 -2.494,3.07699 -1.377,5.33601 1.125,2.276 3.169,3.72099 4.437,3.26998 z"
       id="path28-41-1-49-3-3"
       style="fill:#221f1e;fill-opacity:1;stroke-width:0.999999" />
    <path
       d="m 580.57789,469.97585 c -1.323,-0.25096 -2.321,-2.428 -2.182,-5.062 0.13398,-2.51701 1.405,-4.38198 3.882,-3.912 2.149,0.40702 2.938,2.65701 2.181,5.06102 -0.761,2.42098 -2.559,4.16398 -3.881,3.91298 z"
       id="path27-1-4-65-3-2"
       style="fill:#221f1e;fill-opacity:1;stroke-width:0.999999" />
    <path
       d="m 596.22089,462.68386 c 1.044,-0.729 1.06,-2.996 -0.082,-5.21499 -1.092,-2.12002 -2.913,-3.236 -4.868,-1.87 -1.696,1.18499 -1.504,3.43298 0.082,5.21499 1.596,1.79301 3.824,2.59899 4.868,1.87 z"
       id="path26-38-2-1-7-5"
       style="fill:#221f1e;fill-opacity:1;stroke-width:0.999999" />
    <path
       d="m 574.25289,463.38984 c -1.188,-0.539 -1.629,-2.81999 -0.894,-5.26999 0.704,-2.341 2.33,-3.80598 4.556,-2.79598 1.931,0.877 2.158,3.17798 0.894,5.26998 -1.274,2.10702 -3.367,3.336 -4.556,2.79599 z"
       id="path25-7-3-09-4-2"
       style="fill:#221f1e;fill-opacity:1;stroke-width:0.999999" />
    <path
       d="m 585.04589,458.99984 c -3.33,0 -7.057,-6.12299 -7.632,-8.71597 -0.575,-2.594 0.996,-4.72902 3.484,-4.11201 1.092,0.27099 3.252,1.307 4.102,1.29101 0.925,-0.0151 2.379,-0.83603 3.587,-1.25201 2.657,-0.916 4.717,1.283 4.01,4.07301 -0.774,3.05099 -4.48,8.71597 -7.551,8.71597 z"
       id="path1-4-2-96-3-5"
       style="fill:#221f1e;fill-opacity:1;stroke:none;stroke-width:0;stroke-dasharray:none" />
  </g>
  <g
     id="g3-8-8-8"
     transform="matrix(0.6605328,1.3511841,-1.3511841,0.6605328,260.34233,-480.63529)"
     style="fill:#221f1e;fill-opacity:1">
    <path
       d="m 590.87289,469.91784 c 1.268,-0.45098 1.92,-2.756 1.377,-5.337 -0.519,-2.46697 -2.062,-4.11398 -4.437,-3.26899 -2.06,0.73202 -2.494,3.07699 -1.377,5.33601 1.125,2.276 3.169,3.72099 4.437,3.26998 z"
       id="path28-41-5-2-3-0-6"
       style="fill:#221f1e;fill-opacity:1;stroke-width:0.999999" />
    <path
       d="m 580.57789,469.97585 c -1.323,-0.25096 -2.321,-2.428 -2.182,-5.062 0.13398,-2.51701 1.405,-4.38198 3.882,-3.912 2.149,0.40702 2.938,2.65701 2.181,5.06102 -0.761,2.42098 -2.559,4.16398 -3.881,3.91298 z"
       id="path27-1-5-1-4-8-7"
       style="fill:#221f1e;fill-opacity:1;stroke-width:0.999999" />
    <path
       d="m 596.22089,462.68386 c 1.044,-0.729 1.06,-2.996 -0.082,-5.21499 -1.092,-2.12002 -2.913,-3.236 -4.868,-1.87 -1.696,1.18499 -1.504,3.43298 0.082,5.21499 1.596,1.79301 3.824,2.59899 4.868,1.87 z"
       id="path26-38-1-6-8-8-7"
       style="fill:#221f1e;fill-opacity:1;stroke-width:0.999999" />
    <path
       d="m 574.25289,463.38984 c -1.188,-0.539 -1.629,-2.81999 -0.894,-5.26999 0.704,-2.341 2.33,-3.80598 4.556,-2.79598 1.931,0.877 2.158,3.17798 0.894,5.26998 -1.274,2.10702 -3.367,3.336 -4.556,2.79599 z"
       id="path25-7-7-8-4-0-2"
       style="fill:#221f1e;fill-opacity:1;stroke-width:0.999999" />
    <path
       d="m 585.04589,458.99984 c -3.33,0 -7.057,-6.12299 -7.632,-8.71597 -0.575,-2.594 0.996,-4.72902 3.484,-4.11201 1.092,0.27099 3.252,1.307 4.102,1.29101 0.925,-0.0151 2.379,-0.83603 3.587,-1.25201 2.657,-0.916 4.717,1.283 4.01,4.07301 -0.774,3.05099 -4.48,8.71597 -7.551,8.71597 z"
       id="path1-4-1-5-9-6-2"
       style="fill:#221f1e;fill-opacity:1;stroke:none;stroke-width:0;stroke-dasharray:none" />
  </g>
  <g
     id="g3-8-0-6"
     transform="matrix(0.6605328,1.3511841,-1.3511841,0.6605328,376.31048,-554.00829)"
     style="fill:#221f1e;fill-opacity:1">
    <path
       d="m 590.87289,469.91784 c 1.268,-0.45098 1.92,-2.756 1.377,-5.337 -0.519,-2.46697 -2.062,-4.11398 -4.437,-3.26899 -2.06,0.73202 -2.494,3.07699 -1.377,5.33601 1.125,2.276 3.169,3.72099 4.437,3.26998 z"
       id="path28-41-5-2-3-3-9"
       style="fill:#221f1e;fill-opacity:1;stroke-width:0.999999" />
    <path
       d="m 580.57789,469.97585 c -1.323,-0.25096 -2.321,-2.428 -2.182,-5.062 0.13398,-2.51701 1.405,-4.38198 3.882,-3.912 2.149,0.40702 2.938,2.65701 2.181,5.06102 -0.761,2.42098 -2.559,4.16398 -3.881,3.91298 z"
       id="path27-1-5-1-4-9-8"
       style="fill:#221f1e;fill-opacity:1;stroke-width:0.999999" />
    <path
       d="m 596.22089,462.68386 c 1.044,-0.729 1.06,-2.996 -0.082,-5.21499 -1.092,-2.12002 -2.913,-3.236 -4.868,-1.87 -1.696,1.18499 -1.504,3.43298 0.082,5.21499 1.596,1.79301 3.824,2.59899 4.868,1.87 z"
       id="path26-38-1-6-8-1-2"
       style="fill:#221f1e;fill-opacity:1;stroke-width:0.999999" />
    <path
       d="m 574.25289,463.38984 c -1.188,-0.539 -1.629,-2.81999 -0.894,-5.26999 0.704,-2.341 2.33,-3.80598 4.556,-2.79598 1.931,0.877 2.158,3.17798 0.894,5.26998 -1.274,2.10702 -3.367,3.336 -4.556,2.79599 z"
       id="path25-7-7-8-4-81-5"
       style="fill:#221f1e;fill-opacity:1;stroke-width:0.999999" />
    <path
       d="m 585.04589,458.99984 c -3.33,0 -7.057,-6.12299 -7.632,-8.71597 -0.575,-2.594 0.996,-4.72902 3.484,-4.11201 1.092,0.27099 3.252,1.307 4.102,1.29101 0.925,-0.0151 2.379,-0.83603 3.587,-1.25201 2.657,-0.916 4.717,1.283 4.01,4.07301 -0.774,3.05099 -4.48,8.71597 -7.551,8.71597 z"
       id="path1-4-1-5-9-9-5"
       style="fill:#221f1e;fill-opacity:1;stroke:none;stroke-width:0;stroke-dasharray:none" />
  </g>
</svg>
